<svg width="24" height="24" viewBox="0 0 24 24" fill="none" xmlns="http://www.w3.org/2000/svg">
<path d="M19.9001 23.5001C19.7431 23.5001 19.5881 23.4501 19.4581 23.3561L12.0001 17.9281L4.5421 23.3581C4.3141 23.5221 4.0121 23.5481 3.7601 23.4181C3.5101 23.2911 3.3501 23.0331 3.3501 22.7511V5.6001C3.3501 4.3601 4.3601 3.3501 5.6001 3.3501H18.3981C19.6381 3.3501 20.6481 4.3601 20.6481 5.6001V22.7501C20.6481 23.0321 20.4901 23.2901 20.2381 23.4181C20.1321 23.4731 20.0151 23.5001 19.8981 23.5001H19.9001ZM12.0001 16.2501C12.1551 16.2501 12.3101 16.2981 12.4401 16.3941L19.1501 21.2771V5.6001C19.1501 5.1881 18.8131 4.8501 18.4001 4.8501H5.6001C5.1871 4.8501 4.8501 5.1881 4.8501 5.6001V21.2771L11.5601 16.3941C11.6901 16.2981 11.8451 16.2501 12.0001 16.2501Z" fill="#FFAD1F"/>
</svg>
