<svg width="24" height="24" viewBox="0 0 24 24" fill="none" xmlns="http://www.w3.org/2000/svg">
<path d="M12 22.75C6.072 22.75 1.25 17.928 1.25 12C1.25 6.072 6.072 1.25 12 1.25C17.928 1.25 22.75 6.072 22.75 12C22.75 17.928 17.928 22.75 12 22.75ZM12 2.75C6.9 2.75 2.75 6.9 2.75 12C2.75 17.1 6.9 21.25 12 21.25C17.1 21.25 21.25 17.1 21.25 12C21.25 6.9 17.1 2.75 12 2.75Z" fill="#FFAD1F"/>
<path d="M12 17.1148C10.108 17.1148 8.36701 16.1648 7.34401 14.5708C7.12001 14.2228 7.22101 13.7608 7.57001 13.5358C7.91801 13.3098 8.38201 13.4118 8.60601 13.7618C9.35301 14.9238 10.622 15.6168 12.001 15.6168C13.38 15.6168 14.649 14.9238 15.397 13.7628C15.621 13.4128 16.085 13.3128 16.433 13.5378C16.783 13.7618 16.883 14.2258 16.659 14.5738C15.634 16.1678 13.893 17.1188 12.001 17.1188L12 17.1148Z" fill="#FFAD1F"/>
<path d="M14.738 10.936C15.5543 10.936 16.216 10.2743 16.216 9.45798C16.216 8.6417 15.5543 7.97998 14.738 7.97998C13.9217 7.97998 13.26 8.6417 13.26 9.45798C13.26 10.2743 13.9217 10.936 14.738 10.936Z" fill="#FFAD1F"/>
<path d="M9.26194 10.936C10.0782 10.936 10.7399 10.2743 10.7399 9.45798C10.7399 8.6417 10.0782 7.97998 9.26194 7.97998C8.44566 7.97998 7.78394 8.6417 7.78394 9.45798C7.78394 10.2743 8.44566 10.936 9.26194 10.936Z" fill="#FFAD1F"/>
</svg>
