<svg width="24" height="24" viewBox="0 0 24 24" fill="none" xmlns="http://www.w3.org/2000/svg">
<path d="M20.5851 9.46786C21.2451 9.46786 21.7851 8.92986 21.7851 8.26786C21.7851 7.60586 21.2451 7.06786 20.5851 7.06786H17.3651L17.6751 3.52086C17.7021 3.20286 17.6051 2.89086 17.3981 2.64586C17.1921 2.40086 16.9031 2.24986 16.5761 2.22086C15.9261 2.18586 15.3411 2.65286 15.2831 3.31386L14.9571 7.06786H9.90006L10.2081 3.52286C10.2681 2.86486 9.77806 2.28086 9.11106 2.22086C8.44606 2.17086 7.87606 2.65086 7.81806 3.31286L7.49306 7.06686H4.16306C3.50006 7.06686 2.96306 7.60486 2.96306 8.26686C2.96306 8.92886 3.50106 9.46686 4.16306 9.46686H7.28506L6.84506 14.5309H3.41606C2.75406 14.5309 2.21606 15.0709 2.21606 15.7309C2.21606 16.3909 2.75406 16.9329 3.41606 16.9329H6.63606L6.32606 20.4809C6.26906 21.1379 6.75806 21.7209 7.41606 21.7809L7.52206 21.7859C8.14806 21.7859 8.66206 21.3139 8.71706 20.6879L9.04406 16.9349H14.1001L13.7921 20.4789C13.7321 21.1369 14.2221 21.7209 14.8821 21.7809L14.9881 21.7859C15.6051 21.7859 16.1301 21.3039 16.1831 20.6879L16.5081 16.9349H19.8381C20.4981 16.9349 21.0381 16.3949 21.0381 15.7349C21.0381 15.0749 20.4981 14.5329 19.8381 14.5329H16.7161L17.1561 9.46886H20.5861L20.5851 9.46786ZM14.7471 9.46786L14.3071 14.5309H9.25306L9.69306 9.46886H14.7481L14.7471 9.46786Z" fill="#FFAD1F"/>
</svg>
