<svg width="24" height="24" viewBox="0 0 24 24" fill="none" xmlns="http://www.w3.org/2000/svg">
<path d="M18.9999 10.4998V8.7998H14.5999V15.1998H16.2999V13.1998H18.2999V11.4998H16.2999V10.4998H18.9999ZM11.6999 8.7998H13.3999V15.1998H11.6999V8.7998ZM8.0999 10.3998C8.4999 10.3998 8.9999 10.5998 9.2999 10.8998L10.4999 9.8998C9.8999 9.1998 8.9999 8.7998 8.0999 8.7998C6.2999 8.7998 4.8999 10.1998 4.8999 11.9998C4.8999 13.7998 6.2999 15.1998 8.0999 15.1998C9.0999 15.1998 9.8999 14.7998 10.4999 14.0998V11.5998H7.6999V12.7998H8.8999V13.3998C8.6999 13.4998 8.3999 13.5998 8.0999 13.5998C7.1999 13.5998 6.4999 12.8998 6.4999 11.9998C6.4999 11.1998 7.1999 10.3998 8.0999 10.3998Z" fill="#FFAD1F"/>
<path d="M20.5 2.02002H3.5C2.26 2.02002 1.25 3.02702 1.25 4.26702V19.774C1.25 21.012 2.26 22.02 3.5 22.02H20.5C21.74 22.02 22.75 21.012 22.75 19.774V4.26702C22.75 3.02702 21.74 2.02002 20.5 2.02002ZM21.25 19.774C21.25 20.184 20.914 20.52 20.5 20.52H3.5C3.086 20.52 2.75 20.184 2.75 19.774V4.26702C2.75 3.85502 3.086 3.52002 3.5 3.52002H20.5C20.914 3.52002 21.25 3.85502 21.25 4.26702V19.774Z" fill="#FFAD1F"/>
</svg>
