<svg width="24" height="24" viewBox="0 0 24 24" fill="none" xmlns="http://www.w3.org/2000/svg">
<path d="M19.75 22H4.25C3.01 22 2 20.99 2 19.75V4.25C2 3.01 3.01 2 4.25 2H19.75C20.99 2 22 3.01 22 4.25V19.75C22 20.99 20.99 22 19.75 22ZM4.25 3.5C3.836 3.5 3.5 3.837 3.5 4.25V19.75C3.5 20.163 3.836 20.5 4.25 20.5H19.75C20.164 20.5 20.5 20.163 20.5 19.75V4.25C20.5 3.837 20.164 3.5 19.75 3.5H4.25Z" fill="#FFAD1F"/>
<path d="M17 8.64014H7C6.586 8.64014 6.25 8.30314 6.25 7.89014C6.25 7.47714 6.586 7.14014 7 7.14014H17C17.414 7.14014 17.75 7.47514 17.75 7.89014C17.75 8.30514 17.414 8.64014 17 8.64014ZM17 12.7501H7C6.586 12.7501 6.25 12.4141 6.25 12.0001C6.25 11.5861 6.586 11.2501 7 11.2501H17C17.414 11.2501 17.75 11.5861 17.75 12.0001C17.75 12.4141 17.414 12.7501 17 12.7501ZM12 16.8601H7C6.586 16.8601 6.25 16.5251 6.25 16.1101C6.25 15.6951 6.586 15.3601 7 15.3601H12C12.414 15.3601 12.75 15.6971 12.75 16.1101C12.75 16.5231 12.414 16.8601 12 16.8601Z" fill="#FFAD1F"/>
</svg>
