<svg width="24" height="24" viewBox="0 0 24 24" fill="none" xmlns="http://www.w3.org/2000/svg">
<path d="M21.697 16.4682C21.677 16.4522 19.557 14.8282 19.594 10.4382C19.614 7.90618 18.782 5.65618 17.247 4.10318C15.872 2.71018 14.01 1.94018 12.005 1.93018H11.992C9.98804 1.94018 8.12604 2.71018 6.75004 4.10418C5.21604 5.65718 4.38204 7.90618 4.40404 10.4382C4.44104 14.7682 2.38404 16.4052 2.30204 16.4682C2.04204 16.6612 1.93604 16.9982 2.03704 17.3062C2.13904 17.6142 2.42704 17.8212 2.74904 17.8212H7.66904C7.77104 20.1312 9.66604 21.9812 11.999 21.9812C14.332 21.9812 16.225 20.1312 16.326 17.8212H21.248C21.57 17.8212 21.858 17.6152 21.958 17.3072C22.061 17.0002 21.955 16.6622 21.695 16.4692L21.697 16.4682ZM12 20.4782C10.495 20.4782 9.27004 19.3012 9.17204 17.8202H14.828C14.728 19.3002 13.505 20.4802 12 20.4802V20.4782ZM4.38004 16.3202C5.12004 15.1882 5.92804 13.2922 5.90404 10.4242C5.88604 8.26418 6.54804 6.44218 7.81704 5.15718C8.91004 4.05018 10.397 3.43718 12 3.43018C13.603 3.43818 15.087 4.05018 16.18 5.15818C17.45 6.44318 18.113 8.26418 18.095 10.4252C18.071 13.2932 18.88 15.1902 19.62 16.3212H4.38004V16.3202Z" fill="#FFAD1F"/>
</svg>
