<svg width="24" height="24" viewBox="0 0 24 24" fill="none" xmlns="http://www.w3.org/2000/svg">
<path d="M17.53 7.47024L12.53 2.47024C12.237 2.17724 11.762 2.17724 11.47 2.47024L6.47001 7.47024C6.17601 7.76324 6.17601 8.23824 6.47001 8.53024C6.76401 8.82224 7.23701 8.82424 7.53001 8.53024L11.25 4.81024V15.0002C11.25 15.4142 11.586 15.7502 12 15.7502C12.414 15.7502 12.75 15.4142 12.75 15.0002V4.81024L16.47 8.53024C16.616 8.67724 16.808 8.75024 17 8.75024C17.192 8.75024 17.384 8.67824 17.53 8.53024C17.823 8.23724 17.823 7.76324 17.53 7.47024Z" fill="#FFAD1F"/>
<path d="M19.708 21.944H4.292C3.028 21.944 2 20.916 2 19.652V14C2 13.586 2.336 13.25 2.75 13.25C3.164 13.25 3.5 13.586 3.5 14V19.652C3.5 20.089 3.855 20.444 4.292 20.444H19.708C20.145 20.444 20.5 20.089 20.5 19.652V14C20.5 13.586 20.836 13.25 21.25 13.25C21.664 13.25 22 13.586 22 14V19.652C22 20.916 20.972 21.944 19.708 21.944Z" fill="#FFAD1F"/>
</svg>
